<?xml version="1.0" encoding="UTF-8" standalone="no"?>
<!-- Created with Inkscape (http://www.inkscape.org/) -->

<svg
   xmlns:dc="http://purl.org/dc/elements/1.1/"
   xmlns:cc="http://creativecommons.org/ns#"
   xmlns:rdf="http://www.w3.org/1999/02/22-rdf-syntax-ns#"
   xmlns:svg="http://www.w3.org/2000/svg"
   xmlns="http://www.w3.org/2000/svg"
   xmlns:sodipodi="http://sodipodi.sourceforge.net/DTD/sodipodi-0.dtd"
   xmlns:inkscape="http://www.inkscape.org/namespaces/inkscape"
   width="103.06348mm"
   height="48.413345mm"
   viewBox="0 0 103.06348 48.413345"
   version="1.1"
   id="svg8"
   inkscape:version="0.92.4 (5da689c313, 2019-01-14)"
   sodipodi:docname="Airri Logo.svg"
   inkscape:export-filename="C:\Users\Max\Dropbox\microBlock\Airri Logo w-2000px.png"
   inkscape:export-xdpi="492.64517"
   inkscape:export-ydpi="492.64517">
  <defs
     id="defs2" />
  <sodipodi:namedview
     id="base"
     pagecolor="#ffffff"
     bordercolor="#666666"
     borderopacity="1.0"
     inkscape:pageopacity="0.0"
     inkscape:pageshadow="2"
     inkscape:zoom="1.979899"
     inkscape:cx="234.51395"
     inkscape:cy="95.786016"
     inkscape:document-units="mm"
     inkscape:current-layer="flowRoot4518"
     showgrid="false"
     showguides="true"
     inkscape:guide-bbox="true"
     inkscape:snap-object-midpoints="true"
     inkscape:window-width="1920"
     inkscape:window-height="991"
     inkscape:window-x="-9"
     inkscape:window-y="-9"
     inkscape:window-maximized="1">
    <sodipodi:guide
       position="9.7643526,30.132095"
       orientation="1,0"
       id="guide4539"
       inkscape:locked="false" />
    <sodipodi:guide
       position="24.883401,25.879875"
       orientation="1,0"
       id="guide4547"
       inkscape:locked="false" />
    <sodipodi:guide
       position="61.689257,24.576045"
       orientation="0,1"
       id="guide4549"
       inkscape:locked="false" />
    <sodipodi:guide
       position="16.66875,40.649485"
       orientation="1,0"
       id="guide4551"
       inkscape:locked="false" />
    <sodipodi:guide
       position="103.06348,34.497925"
       orientation="1,0"
       id="guide4557"
       inkscape:locked="false" />
  </sodipodi:namedview>
  <metadata
     id="metadata5">
    <rdf:RDF>
      <cc:Work
         rdf:about="">
        <dc:format>image/svg+xml</dc:format>
        <dc:type
           rdf:resource="http://purl.org/dc/dcmitype/StillImage" />
        <dc:title></dc:title>
      </cc:Work>
    </rdf:RDF>
  </metadata>
  <g
     inkscape:label="Layer 1"
     inkscape:groupmode="layer"
     id="layer1"
     transform="translate(-28.363995,-36.483249)">
    <g
       aria-label="Airri"
       transform="matrix(0.26458333,0,0,0.26458333,12.032692,1.9667716)"
       style="font-style:normal;font-variant:normal;font-weight:normal;font-stretch:normal;font-size:192px;line-height:1.25;font-family:'Arial Rounded MT Bold';-inkscape-font-specification:'Arial Rounded MT Bold, ';letter-spacing:0px;word-spacing:0px;fill:#000000;fill-opacity:1;stroke:none"
       id="flowRoot4518">
      <path
         d="m 159.50586,254.67473 -6.5625,-17.25 H 97.068359 l -6.5625,17.625 c -2.5625,6.875 -4.75,11.53125 -6.5625,13.96875 -1.8125,2.375 -4.78125,3.5625 -8.90625,3.5625 -3.5,0 -6.59375,-1.28125 -9.28125,-3.84375 -2.6875,-2.5625 -4.03125,-5.46875 -4.03125,-8.71875 0,-1.875 0.3125,-3.8125 0.9375,-5.8125 0.625,-2 1.65625,-4.78125 3.09375,-8.34375 l 35.156251,-89.25 c 1,-2.5625 2.1875,-5.625 3.5625,-9.1875 1.4375,-3.625 2.9375,-6.625 4.5,-9 1.625,-2.375 3.71875,-4.28125 6.28125,-5.71875 2.625,-1.5 5.84375,-2.25 9.65625,-2.25 3.875,0 7.09375,0.75 9.65625,2.25 2.625,1.4375 4.71875,3.3125 6.28125,5.625 1.625,2.3125 2.96875,4.8125 4.03125,7.5 1.125,2.625 2.53125,6.15625 4.21875,10.59375 l 35.90625,88.6875 c 2.8125,6.75 4.21875,11.65625 4.21875,14.71875 0,3.1875 -1.34375,6.125 -4.03125,8.8125 -2.625,2.625 -5.8125,3.9375 -9.5625,3.9375 -2.1875,0 -4.0625,-0.40625 -5.625,-1.21875 -1.5625,-0.75 -2.875,-1.78125 -3.9375,-3.09375 -1.0625,-1.375 -2.21875,-3.4375 -3.46875,-6.1875 -1.1875,-2.8125 -2.21875,-5.28125 -3.09375,-7.40625 z m -62.437501,-17.25 h 55.875001 l -28.21875,-77.625 z"
         id="path4526"
         inkscape:connector-curvature="0"
         sodipodi:nodetypes="cccccsssscccccscccccssscccccccc"
         style="fill:#f1c40f;fill-opacity:1" />
      <path
         d="m 233.38086,183.04973 v 73.96875 q 0,7.6875 -3.65625,11.625 -3.65625,3.9375 -9.28125,3.9375 -5.625,0 -9.1875,-4.03125 -3.46875,-4.03125 -3.46875,-11.53125 v -73.21875 q 0,-7.59375 3.46875,-11.4375 3.5625,-3.84375 9.1875,-3.84375 5.625,0 9.28125,3.84375 3.65625,3.84375 3.65625,10.6875 z m -12.65625,-26.4375 q -5.34375,0 -9.1875,-3.28125 -3.75,-3.28125 -3.75,-9.28125 0,-5.4375 3.84375,-8.90625 3.9375,-3.5625 9.09375,-3.5625 4.96875,0 8.8125,3.1875 3.84375,3.1875 3.84375,9.28125 0,5.90625 -3.75,9.28125 -3.75,3.28125 -8.90625,3.28125 z"
         style="fill:#f1c40f;fill-opacity:1"
         id="path4528"
         inkscape:connector-curvature="0" />
      <path
         d="m 285.31836,235.64348 v 21.375 q 0,7.78125 -3.65625,11.71875 -3.65625,3.84375 -9.28125,3.84375 -5.53125,0 -9.09375,-3.9375 -3.5625,-3.9375 -3.5625,-11.625 v -71.25 q 0,-17.25 12.46875,-17.25 6.375,0 9.1875,4.03125 2.8125,4.03125 3.09375,11.90625 4.59375,-7.875 9.375,-11.90625 4.875,-4.03125 12.9375,-4.03125 8.0625,0 15.65625,4.03125 7.59375,4.03125 7.59375,10.6875 0,4.6875 -3.28125,7.78125 -3.1875,3 -6.9375,3 -1.40625,0 -6.84375,-1.6875 -5.34375,-1.78125 -9.46875,-1.78125 -5.625,0 -9.1875,3 -3.5625,2.90625 -5.53125,8.71875 -1.96875,5.8125 -2.71875,13.875 -0.75,7.96875 -0.75,19.5 z"
         style="fill:#f1c40f;fill-opacity:1"
         id="path4530"
         inkscape:connector-curvature="0" />
      <path
         d="m 366.92773,235.64348 v 21.375 q 0,7.78125 -3.65625,11.71875 -3.65625,3.84375 -9.28125,3.84375 -5.53125,0 -9.09375,-3.9375 -3.5625,-3.9375 -3.5625,-11.625 v -71.25 q 0,-17.25 12.46875,-17.25 6.375,0 9.1875,4.03125 2.8125,4.03125 3.09375,11.90625 4.59375,-7.875 9.375,-11.90625 4.875,-4.03125 12.9375,-4.03125 8.0625,0 15.65625,4.03125 7.59375,4.03125 7.59375,10.6875 0,4.6875 -3.28125,7.78125 -3.1875,3 -6.9375,3 -1.40625,0 -6.84375,-1.6875 -5.34375,-1.78125 -9.46875,-1.78125 -5.625,0 -9.1875,3 -3.5625,2.90625 -5.53125,8.71875 -1.96875,5.8125 -2.71875,13.875 -0.75,7.96875 -0.75,19.5 z"
         style="fill:#3498db;fill-opacity:1"
         id="path4532"
         inkscape:connector-curvature="0" />
      <path
         d="m 451.25586,183.04973 v 73.96875 q 0,7.6875 -3.65625,11.625 -3.65625,3.9375 -9.28125,3.9375 -5.625,0 -9.1875,-4.03125 -3.46875,-4.03125 -3.46875,-11.53125 v -73.21875 q 0,-7.59375 3.46875,-11.4375 3.5625,-3.84375 9.1875,-3.84375 5.625,0 9.28125,3.84375 3.65625,3.84375 3.65625,10.6875 z m -12.65625,-26.4375 q -5.34375,0 -9.1875,-3.28125 -3.75,-3.28125 -3.75,-9.28125 0,-5.4375 3.84375,-8.90625 3.9375,-3.5625 9.09375,-3.5625 4.96875,0 8.8125,3.1875 3.84375,3.1875 3.84375,9.28125 0,5.90625 -3.75,9.28125 -3.75,3.28125 -8.90625,3.28125 z"
         style="fill:#3498db;fill-opacity:1"
         id="path4534"
         inkscape:connector-curvature="0" />
      <path
         style="fill:#2ecc71;fill-opacity:1;stroke:#ffffff;stroke-width:11.33858282;stroke-linecap:round;stroke-linejoin:round;stroke-miterlimit:4;stroke-dasharray:none;stroke-opacity:1;paint-order:markers stroke fill"
         d="m 67.955228,222.57214 c 0,0 16.60184,-9.32336 27.064917,-9.64671 19.657805,-0.60749 37.516635,24.71796 57.183475,24.60081 11.97606,-0.0713 29.89885,-14.9541 29.89885,-14.9541 0,0 -18.98142,7.76912 -29.85551,6.73764 -20.28678,-1.92434 -37.17197,-28.39454 -57.34411,-25.50636 -11.695869,1.67457 -26.947622,18.76872 -26.947622,18.76872 z"
         id="path4537"
         inkscape:connector-curvature="0"
         sodipodi:nodetypes="csscssc" />
      <text
         xml:space="preserve"
         style="font-style:normal;font-variant:normal;font-weight:normal;font-stretch:normal;font-size:37.33333206px;line-height:1.25;font-family:supermarket;-inkscape-font-specification:supermarket;letter-spacing:0px;word-spacing:0px;fill:#000000;fill-opacity:1;stroke:none"
         x="451.44135"
         y="306.9642"
         id="text4555"><tspan
           sodipodi:role="line"
           id="tspan4553"
           x="451.44135"
           y="306.9642"
           style="text-align:end;text-anchor:end;fill:#bdc3cf;fill-opacity:0.94117647"><tspan
   style="fill:#a6acaf;fill-opacity:0.94117647"
   id="tspan4559">by</tspan> microBlock</tspan></text>
      <circle
         style="opacity:1;fill:#ffffff;fill-opacity:1;fill-rule:nonzero;stroke:none;stroke-width:19.89600182;stroke-linecap:round;stroke-linejoin:miter;stroke-miterlimit:4;stroke-dasharray:none;stroke-opacity:1;paint-order:markers stroke fill"
         id="path4573"
         cx="224.70035"
         cy="146.36427"
         r="4.1517859" />
    </g>
  </g>
</svg>
