<?xml version="1.0" encoding="UTF-8" standalone="no"?>
<!-- Created with Inkscape (http://www.inkscape.org/) -->

<svg
   xmlns:dc="http://purl.org/dc/elements/1.1/"
   xmlns:cc="http://creativecommons.org/ns#"
   xmlns:rdf="http://www.w3.org/1999/02/22-rdf-syntax-ns#"
   xmlns:svg="http://www.w3.org/2000/svg"
   xmlns="http://www.w3.org/2000/svg"
   xmlns:sodipodi="http://sodipodi.sourceforge.net/DTD/sodipodi-0.dtd"
   xmlns:inkscape="http://www.inkscape.org/namespaces/inkscape"
   width="103.06348mm"
   height="48.413345mm"
   viewBox="0 0 103.06348 48.413345"
   version="1.1"
   id="svg8"
   inkscape:version="0.92.4 (5da689c313, 2019-01-14)"
   sodipodi:docname="Airri_Logo.svg"
   inkscape:export-filename="C:\Users\Max\Dropbox\microBlock\Airri Logo w-2000px.png"
   inkscape:export-xdpi="492.64517"
   inkscape:export-ydpi="492.64517">
  <defs
     id="defs2" />
  <sodipodi:namedview
     id="base"
     pagecolor="#ffffff"
     bordercolor="#666666"
     borderopacity="1.0"
     inkscape:pageopacity="0.0"
     inkscape:pageshadow="2"
     inkscape:zoom="1.979899"
     inkscape:cx="234.51395"
     inkscape:cy="95.786016"
     inkscape:document-units="mm"
     inkscape:current-layer="text4555"
     showgrid="false"
     showguides="true"
     inkscape:guide-bbox="true"
     inkscape:snap-object-midpoints="true"
     inkscape:window-width="1920"
     inkscape:window-height="991"
     inkscape:window-x="-9"
     inkscape:window-y="-9"
     inkscape:window-maximized="1">
    <sodipodi:guide
       position="9.7643526,30.132095"
       orientation="1,0"
       id="guide4539"
       inkscape:locked="false" />
    <sodipodi:guide
       position="24.883401,25.879875"
       orientation="1,0"
       id="guide4547"
       inkscape:locked="false" />
    <sodipodi:guide
       position="61.689257,24.576045"
       orientation="0,1"
       id="guide4549"
       inkscape:locked="false" />
    <sodipodi:guide
       position="16.66875,40.649485"
       orientation="1,0"
       id="guide4551"
       inkscape:locked="false" />
    <sodipodi:guide
       position="103.06348,34.497925"
       orientation="1,0"
       id="guide4557"
       inkscape:locked="false" />
  </sodipodi:namedview>
  <metadata
     id="metadata5">
    <rdf:RDF>
      <cc:Work
         rdf:about="">
        <dc:format>image/svg+xml</dc:format>
        <dc:type
           rdf:resource="http://purl.org/dc/dcmitype/StillImage" />
        <dc:title></dc:title>
      </cc:Work>
    </rdf:RDF>
  </metadata>
  <g
     inkscape:label="Layer 1"
     inkscape:groupmode="layer"
     id="layer1"
     transform="translate(-28.363995,-36.483249)">
    <g
       aria-label="Airri"
       transform="matrix(0.26458333,0,0,0.26458333,12.032692,1.9667716)"
       style="font-style:normal;font-variant:normal;font-weight:normal;font-stretch:normal;font-size:192px;line-height:1.25;font-family:'Arial Rounded MT Bold';-inkscape-font-specification:'Arial Rounded MT Bold, ';letter-spacing:0px;word-spacing:0px;fill:#000000;fill-opacity:1;stroke:none"
       id="flowRoot4518">
      <path
         d="m 159.50586,254.67473 -6.5625,-17.25 H 97.068359 l -6.5625,17.625 c -2.5625,6.875 -4.75,11.53125 -6.5625,13.96875 -1.8125,2.375 -4.78125,3.5625 -8.90625,3.5625 -3.5,0 -6.59375,-1.28125 -9.28125,-3.84375 -2.6875,-2.5625 -4.03125,-5.46875 -4.03125,-8.71875 0,-1.875 0.3125,-3.8125 0.9375,-5.8125 0.625,-2 1.65625,-4.78125 3.09375,-8.34375 l 35.156251,-89.25 c 1,-2.5625 2.1875,-5.625 3.5625,-9.1875 1.4375,-3.625 2.9375,-6.625 4.5,-9 1.625,-2.375 3.71875,-4.28125 6.28125,-5.71875 2.625,-1.5 5.84375,-2.25 9.65625,-2.25 3.875,0 7.09375,0.75 9.65625,2.25 2.625,1.4375 4.71875,3.3125 6.28125,5.625 1.625,2.3125 2.96875,4.8125 4.03125,7.5 1.125,2.625 2.53125,6.15625 4.21875,10.59375 l 35.90625,88.6875 c 2.8125,6.75 4.21875,11.65625 4.21875,14.71875 0,3.1875 -1.34375,6.125 -4.03125,8.8125 -2.625,2.625 -5.8125,3.9375 -9.5625,3.9375 -2.1875,0 -4.0625,-0.40625 -5.625,-1.21875 -1.5625,-0.75 -2.875,-1.78125 -3.9375,-3.09375 -1.0625,-1.375 -2.21875,-3.4375 -3.46875,-6.1875 -1.1875,-2.8125 -2.21875,-5.28125 -3.09375,-7.40625 z m -62.437501,-17.25 h 55.875001 l -28.21875,-77.625 z"
         id="path4526"
         inkscape:connector-curvature="0"
         sodipodi:nodetypes="cccccsssscccccscccccssscccccccc"
         style="fill:#f1c40f;fill-opacity:1" />
      <path
         d="m 233.38086,183.04973 v 73.96875 q 0,7.6875 -3.65625,11.625 -3.65625,3.9375 -9.28125,3.9375 -5.625,0 -9.1875,-4.03125 -3.46875,-4.03125 -3.46875,-11.53125 v -73.21875 q 0,-7.59375 3.46875,-11.4375 3.5625,-3.84375 9.1875,-3.84375 5.625,0 9.28125,3.84375 3.65625,3.84375 3.65625,10.6875 z m -12.65625,-26.4375 q -5.34375,0 -9.1875,-3.28125 -3.75,-3.28125 -3.75,-9.28125 0,-5.4375 3.84375,-8.90625 3.9375,-3.5625 9.09375,-3.5625 4.96875,0 8.8125,3.1875 3.84375,3.1875 3.84375,9.28125 0,5.90625 -3.75,9.28125 -3.75,3.28125 -8.90625,3.28125 z"
         style="fill:#f1c40f;fill-opacity:1"
         id="path4528"
         inkscape:connector-curvature="0" />
      <path
         d="m 285.31836,235.64348 v 21.375 q 0,7.78125 -3.65625,11.71875 -3.65625,3.84375 -9.28125,3.84375 -5.53125,0 -9.09375,-3.9375 -3.5625,-3.9375 -3.5625,-11.625 v -71.25 q 0,-17.25 12.46875,-17.25 6.375,0 9.1875,4.03125 2.8125,4.03125 3.09375,11.90625 4.59375,-7.875 9.375,-11.90625 4.875,-4.03125 12.9375,-4.03125 8.0625,0 15.65625,4.03125 7.59375,4.03125 7.59375,10.6875 0,4.6875 -3.28125,7.78125 -3.1875,3 -6.9375,3 -1.40625,0 -6.84375,-1.6875 -5.34375,-1.78125 -9.46875,-1.78125 -5.625,0 -9.1875,3 -3.5625,2.90625 -5.53125,8.71875 -1.96875,5.8125 -2.71875,13.875 -0.75,7.96875 -0.75,19.5 z"
         style="fill:#f1c40f;fill-opacity:1"
         id="path4530"
         inkscape:connector-curvature="0" />
      <path
         d="m 366.92773,235.64348 v 21.375 q 0,7.78125 -3.65625,11.71875 -3.65625,3.84375 -9.28125,3.84375 -5.53125,0 -9.09375,-3.9375 -3.5625,-3.9375 -3.5625,-11.625 v -71.25 q 0,-17.25 12.46875,-17.25 6.375,0 9.1875,4.03125 2.8125,4.03125 3.09375,11.90625 4.59375,-7.875 9.375,-11.90625 4.875,-4.03125 12.9375,-4.03125 8.0625,0 15.65625,4.03125 7.59375,4.03125 7.59375,10.6875 0,4.6875 -3.28125,7.78125 -3.1875,3 -6.9375,3 -1.40625,0 -6.84375,-1.6875 -5.34375,-1.78125 -9.46875,-1.78125 -5.625,0 -9.1875,3 -3.5625,2.90625 -5.53125,8.71875 -1.96875,5.8125 -2.71875,13.875 -0.75,7.96875 -0.75,19.5 z"
         style="fill:#3498db;fill-opacity:1"
         id="path4532"
         inkscape:connector-curvature="0" />
      <path
         d="m 451.25586,183.04973 v 73.96875 q 0,7.6875 -3.65625,11.625 -3.65625,3.9375 -9.28125,3.9375 -5.625,0 -9.1875,-4.03125 -3.46875,-4.03125 -3.46875,-11.53125 v -73.21875 q 0,-7.59375 3.46875,-11.4375 3.5625,-3.84375 9.1875,-3.84375 5.625,0 9.28125,3.84375 3.65625,3.84375 3.65625,10.6875 z m -12.65625,-26.4375 q -5.34375,0 -9.1875,-3.28125 -3.75,-3.28125 -3.75,-9.28125 0,-5.4375 3.84375,-8.90625 3.9375,-3.5625 9.09375,-3.5625 4.96875,0 8.8125,3.1875 3.84375,3.1875 3.84375,9.28125 0,5.90625 -3.75,9.28125 -3.75,3.28125 -8.90625,3.28125 z"
         style="fill:#3498db;fill-opacity:1"
         id="path4534"
         inkscape:connector-curvature="0" />
      <path
         style="fill:#2ecc71;fill-opacity:1;stroke:#ffffff;stroke-width:11.33858282;stroke-linecap:round;stroke-linejoin:round;stroke-miterlimit:4;stroke-dasharray:none;stroke-opacity:1;paint-order:markers stroke fill"
         d="m 67.955228,222.57214 c 0,0 16.60184,-9.32336 27.064917,-9.64671 19.657805,-0.60749 37.516635,24.71796 57.183475,24.60081 11.97606,-0.0713 29.89885,-14.9541 29.89885,-14.9541 0,0 -18.98142,7.76912 -29.85551,6.73764 -20.28678,-1.92434 -37.17197,-28.39454 -57.34411,-25.50636 -11.695869,1.67457 -26.947622,18.76872 -26.947622,18.76872 z"
         id="path4537"
         inkscape:connector-curvature="0"
         sodipodi:nodetypes="csscssc" />
      <g
         aria-label="by microBlock"
         style="font-style:normal;font-variant:normal;font-weight:normal;font-stretch:normal;font-size:37.33333206px;line-height:1.25;font-family:supermarket;-inkscape-font-specification:supermarket;letter-spacing:0px;word-spacing:0px;fill:#000000;fill-opacity:1;stroke:none"
         id="text4555">
        <path
           d="m 258.7226,283.63087 h 2.91667 v 7.5651 q 0.83854,-0.60156 1.98698,-0.98437 1.16666,-0.38281 2.7526,-0.38281 1.38542,0 2.44271,0.30989 1.07552,0.29167 1.8776,0.80209 0.80209,0.49218 1.36719,1.1302 0.56511,0.6198 0.92969,1.27605 0.875,1.53125 1.03906,3.5 v 3.28125 q -0.16406,1.98697 -1.03906,3.51822 -0.36458,0.65625 -0.92969,1.29428 -0.5651,0.61979 -1.36719,1.11197 -0.80208,0.49219 -1.8776,0.80209 -1.05729,0.29166 -2.44271,0.29166 -1.58594,0 -2.7526,-0.38281 -1.14844,-0.38281 -1.98698,-0.98437 v 1.18489 h -2.91667 z m 2.91667,16.4974 q 0,0.80208 0.20052,1.42187 0.20052,0.61979 0.52864,1.07552 0.34636,0.4375 0.76563,0.7474 0.4375,0.30989 0.875,0.51041 1.03906,0.47396 2.36979,0.52865 1.3125,-0.0547 2.35156,-0.52865 0.4375,-0.20052 0.85677,-0.51041 0.4375,-0.3099 0.76563,-0.7474 0.34635,-0.45573 0.54687,-1.07552 0.20053,-0.61979 0.20053,-1.42187 v -3.28125 q 0,-0.76563 -0.20053,-1.34896 -0.20052,-0.58334 -0.54687,-1.02084 -0.32813,-0.4375 -0.76563,-0.72916 -0.41927,-0.29167 -0.85677,-0.49219 -1.03906,-0.45573 -2.35156,-0.51042 -1.33073,0.0547 -2.36979,0.51042 -0.4375,0.20052 -0.875,0.49219 -0.41927,0.29166 -0.76563,0.72916 -0.32812,0.4375 -0.52864,1.02084 -0.20052,0.58333 -0.20052,1.34896 z"
           style="fill:#a6acaf;fill-opacity:0.94117647"
           id="path4560" />
        <path
           d="m 291.26166,289.82879 -8.29427,23.60677 h -3.40885 l 2.35156,-6.47136 -5.97916,-17.13541 h 3.35416 l 4.32031,12.45052 4.32032,-12.45052 z"
           style="fill:#a6acaf;fill-opacity:0.94117647"
           id="path4562" />
        <path
           d="m 325.2226,306.9642 h -2.91667 v -10.11718 q 0,-0.76563 -0.1276,-1.34896 -0.1276,-0.58334 -0.34635,-1.02084 -0.20052,-0.4375 -0.47396,-0.72916 -0.25521,-0.29167 -0.52865,-0.49219 -0.65625,-0.45573 -1.47656,-0.51042 -0.78385,0.0547 -1.38542,0.51042 -0.25521,0.20052 -0.51041,0.49219 -0.23698,0.29166 -0.4375,0.72916 -0.1823,0.4375 -0.3099,1.02084 -0.10937,0.58333 -0.10937,1.34896 v 10.11718 h -2.91667 v -10.11718 q 0,-0.76563 -0.12761,-1.34896 -0.10937,-0.58334 -0.30989,-1.02084 -0.18229,-0.4375 -0.4375,-0.72916 -0.25521,-0.29167 -0.51042,-0.49219 -0.60156,-0.45573 -1.36719,-0.51042 -0.83854,0.0547 -1.47656,0.51042 -0.27344,0.20052 -0.54687,0.49219 -0.27344,0.29166 -0.47396,0.72916 -0.20052,0.4375 -0.32813,1.02084 -0.1276,0.58333 -0.1276,1.34896 v 10.11718 h -2.91667 v -16.95312 h 2.91667 v 1.18489 q 0.18229,-0.20052 0.40104,-0.4375 0.23698,-0.23697 0.56511,-0.4375 0.34635,-0.21875 0.82031,-0.34635 0.47396,-0.14583 1.13021,-0.14583 1.54948,0 2.57031,0.61979 1.03906,0.61979 1.67708,1.51302 0.61979,-0.89323 1.64063,-1.51302 1.03906,-0.61979 2.60677,-0.61979 1.3125,0 2.38802,0.47396 1.07552,0.45572 1.84114,1.34895 0.76563,0.89323 1.1849,2.20573 0.41927,1.3125 0.41927,2.98959 z"
           style="text-align:end;text-anchor:end;fill:#bdc3cf;fill-opacity:0.94117647"
           id="path4564" />
        <path
           d="m 330.65489,287.20379 q -0.40104,0 -0.76562,-0.14584 -0.34636,-0.16406 -0.6198,-0.41927 -0.27343,-0.27343 -0.4375,-0.61979 -0.14583,-0.36458 -0.14583,-0.76562 0,-0.41927 0.14583,-0.76563 0.16407,-0.36458 0.4375,-0.61979 0.27344,-0.27344 0.6198,-0.41927 0.36458,-0.16406 0.76562,-0.16406 0.40104,0 0.76563,0.16406 0.36458,0.14583 0.63802,0.41927 0.27343,0.25521 0.41927,0.61979 0.16406,0.34636 0.16406,0.76563 0,0.40104 -0.16406,0.76562 -0.14584,0.34636 -0.41927,0.61979 -0.27344,0.25521 -0.63802,0.41927 -0.36459,0.14584 -0.76563,0.14584 z m 1.45833,2.80729 v 16.95312 h -2.91666 v -16.95312 z"
           style="text-align:end;text-anchor:end;fill:#bdc3cf;fill-opacity:0.94117647"
           id="path4566" />
        <path
           d="m 350.10541,300.76629 q -0.0547,0.41927 -0.23698,1.07552 -0.16406,0.63802 -0.51041,1.34896 -0.32813,0.6927 -0.875,1.40364 -0.54688,0.71094 -1.36719,1.27604 -0.82031,0.56511 -1.95052,0.92969 -1.13021,0.34635 -2.64323,0.34635 -1.40365,0 -2.47917,-0.29166 -1.05729,-0.3099 -1.85937,-0.80209 -0.80208,-0.49218 -1.36719,-1.11197 -0.54687,-0.63803 -0.91146,-1.29428 -0.875,-1.53125 -1.03906,-3.51822 v -3.28125 q 0.16406,-1.96875 1.03906,-3.5 0.36459,-0.65625 0.91146,-1.27605 0.56511,-0.63802 1.36719,-1.1302 0.80208,-0.51042 1.85937,-0.80209 1.07552,-0.30989 2.47917,-0.30989 1.51302,0 2.64323,0.36458 1.13021,0.34635 1.95052,0.91146 0.82031,0.5651 1.36719,1.27604 0.54687,0.71094 0.875,1.42187 0.34635,0.71094 0.51041,1.34896 0.16407,0.63802 0.23698,1.07552 h -2.8802 q -0.0912,-0.65625 -0.34636,-1.14843 -0.23698,-0.49219 -0.60156,-0.85677 -0.34636,-0.36459 -0.76563,-0.6198 -0.40104,-0.2552 -0.82031,-0.41927 -0.98437,-0.38281 -2.16927,-0.4375 -1.33073,0.0547 -2.36979,0.51042 -0.4375,0.20052 -0.875,0.49219 -0.41927,0.29166 -0.76563,0.72916 -0.32812,0.4375 -0.52864,1.02084 -0.20052,0.58333 -0.20052,1.34896 v 3.28125 q 0,0.80208 0.20052,1.42187 0.20052,0.61979 0.52864,1.07552 0.34636,0.4375 0.76563,0.7474 0.4375,0.30989 0.875,0.51041 1.03906,0.47396 2.36979,0.52865 1.1849,-0.0547 2.1875,-0.45573 0.41927,-0.16406 0.82031,-0.41927 0.41927,-0.27344 0.76563,-0.65625 0.34635,-0.38281 0.58333,-0.89323 0.25521,-0.52865 0.34636,-1.22135 z"
           style="text-align:end;text-anchor:end;fill:#bdc3cf;fill-opacity:0.94117647"
           id="path4568" />
        <path
           d="m 352.3476,306.9642 v -16.95312 h 2.91667 v 1.18489 q 0.83854,-0.60156 1.98698,-0.98437 1.16666,-0.38281 2.7526,-0.38281 v 2.73437 q -1.33073,0.0547 -2.36979,0.52865 -0.4375,0.20052 -0.875,0.51041 -0.41927,0.3099 -0.76563,0.76563 -0.32812,0.45573 -0.52864,1.07552 -0.20052,0.60156 -0.20052,1.40365 v 10.11718 z"
           style="text-align:end;text-anchor:end;fill:#bdc3cf;fill-opacity:0.94117647"
           id="path4570" />
        <path
           d="m 368.82677,289.82879 q 1.38541,0 2.4427,0.30989 1.07552,0.29167 1.87761,0.80209 0.80208,0.49218 1.34896,1.1302 0.5651,0.6198 0.92968,1.27605 0.875,1.53125 1.03907,3.5 v 3.28125 q -0.16407,1.98697 -1.03907,3.51822 -0.36458,0.65625 -0.92968,1.29428 -0.54688,0.61979 -1.34896,1.11197 -0.80209,0.49219 -1.87761,0.80209 -1.05729,0.29166 -2.4427,0.29166 -1.40365,0 -2.47917,-0.29166 -1.05729,-0.3099 -1.85938,-0.80209 -0.80208,-0.49218 -1.36718,-1.11197 -0.54688,-0.63803 -0.91146,-1.29428 -0.875,-1.53125 -1.03906,-3.51822 v -3.28125 q 0.16406,-1.96875 1.03906,-3.5 0.36458,-0.65625 0.91146,-1.27605 0.5651,-0.63802 1.36718,-1.1302 0.80209,-0.51042 1.85938,-0.80209 1.07552,-0.30989 2.47917,-0.30989 z m 4.73958,7.01823 q 0,-0.76563 -0.20052,-1.34896 -0.20052,-0.58334 -0.54688,-1.02084 -0.32812,-0.4375 -0.76562,-0.72916 -0.41927,-0.29167 -0.85677,-0.49219 -1.03907,-0.45573 -2.36979,-0.51042 -1.34896,0.0547 -2.38803,0.51042 -0.4375,0.20052 -0.875,0.49219 -0.41927,0.29166 -0.76562,0.72916 -0.32813,0.4375 -0.52865,1.02084 -0.20052,0.58333 -0.20052,1.34896 v 3.28125 q 0,0.80208 0.20052,1.42187 0.20052,0.61979 0.52865,1.07552 0.34635,0.4375 0.76562,0.7474 0.4375,0.30989 0.875,0.51041 1.03907,0.47396 2.38803,0.52865 1.33072,-0.0547 2.36979,-0.52865 0.4375,-0.20052 0.85677,-0.51041 0.4375,-0.3099 0.76562,-0.7474 0.34636,-0.45573 0.54688,-1.07552 0.20052,-0.61979 0.20052,-1.42187 z"
           style="text-align:end;text-anchor:end;fill:#bdc3cf;fill-opacity:0.94117647"
           id="path4572" />
        <path
           d="m 391.74083,295.69858 q 1.11197,0.89323 1.76822,2.04166 0.65625,1.13021 0.65625,2.67969 0,1.34896 -0.52864,2.55209 -0.51042,1.18489 -1.42188,2.07812 -0.89323,0.89323 -2.09635,1.40365 -1.1849,0.51041 -2.51563,0.51041 h -8.76822 v -22.60416 h 8.76822 q 1.36719,0 2.55209,0.49218 1.18489,0.47396 2.07812,1.33073 0.89323,0.83855 1.40365,2.00521 0.51042,1.16667 0.51042,2.51563 0,1.53125 -0.65625,2.80729 -0.63803,1.25781 -1.75,2.1875 z m -4.1198,8.53125 q 0.7474,0 1.40365,-0.3099 0.65625,-0.32812 1.14844,-0.85677 0.49218,-0.52864 0.76562,-1.20312 0.29167,-0.69271 0.29167,-1.44011 0,-0.72916 -0.27344,-1.34896 -0.27344,-0.61979 -0.76562,-1.07552 -0.47396,-0.47396 -1.14844,-0.74739 -0.65625,-0.27344 -1.42188,-0.32813 h -5.86979 v 7.3099 z m 0,-9.95313 q 0.7474,0 1.40365,-0.27343 0.65625,-0.27344 1.14844,-0.7474 0.49218,-0.49219 0.76562,-1.14844 0.29167,-0.65625 0.29167,-1.40364 0,-0.7474 -0.29167,-1.40365 -0.29166,-0.65625 -0.78385,-1.14844 -0.49219,-0.49218 -1.14844,-0.76562 -0.65625,-0.29167 -1.40365,-0.29167 h -5.85156 v 7.18229 z"
           style="text-align:end;text-anchor:end;fill:#bdc3cf;fill-opacity:0.94117647"
           id="path4574" />
        <path
           d="m 400.21738,283.63087 v 23.33333 h -2.91666 v -23.33333 z"
           style="text-align:end;text-anchor:end;fill:#bdc3cf;fill-opacity:0.94117647"
           id="path4576" />
        <path
           d="m 410.5351,289.82879 q 1.38542,0 2.44271,0.30989 1.07552,0.29167 1.8776,0.80209 0.80209,0.49218 1.34896,1.1302 0.56511,0.6198 0.92969,1.27605 0.875,1.53125 1.03906,3.5 v 3.28125 q -0.16406,1.98697 -1.03906,3.51822 -0.36458,0.65625 -0.92969,1.29428 -0.54687,0.61979 -1.34896,1.11197 -0.80208,0.49219 -1.8776,0.80209 -1.05729,0.29166 -2.44271,0.29166 -1.40364,0 -2.47917,-0.29166 -1.05729,-0.3099 -1.85937,-0.80209 -0.80208,-0.49218 -1.36719,-1.11197 -0.54687,-0.63803 -0.91146,-1.29428 -0.875,-1.53125 -1.03906,-3.51822 v -3.28125 q 0.16406,-1.96875 1.03906,-3.5 0.36459,-0.65625 0.91146,-1.27605 0.56511,-0.63802 1.36719,-1.1302 0.80208,-0.51042 1.85937,-0.80209 1.07553,-0.30989 2.47917,-0.30989 z m 4.73958,7.01823 q 0,-0.76563 -0.20052,-1.34896 -0.20052,-0.58334 -0.54687,-1.02084 -0.32813,-0.4375 -0.76563,-0.72916 -0.41927,-0.29167 -0.85677,-0.49219 -1.03906,-0.45573 -2.36979,-0.51042 -1.34896,0.0547 -2.38802,0.51042 -0.4375,0.20052 -0.875,0.49219 -0.41927,0.29166 -0.76562,0.72916 -0.32813,0.4375 -0.52865,1.02084 -0.20052,0.58333 -0.20052,1.34896 v 3.28125 q 0,0.80208 0.20052,1.42187 0.20052,0.61979 0.52865,1.07552 0.34635,0.4375 0.76562,0.7474 0.4375,0.30989 0.875,0.51041 1.03906,0.47396 2.38802,0.52865 1.33073,-0.0547 2.36979,-0.52865 0.4375,-0.20052 0.85677,-0.51041 0.4375,-0.3099 0.76563,-0.7474 0.34635,-0.45573 0.54687,-1.07552 0.20052,-0.61979 0.20052,-1.42187 z"
           style="text-align:end;text-anchor:end;fill:#bdc3cf;fill-opacity:0.94117647"
           id="path4578" />
        <path
           d="m 435.05332,300.76629 q -0.0547,0.41927 -0.23698,1.07552 -0.16406,0.63802 -0.51042,1.34896 -0.32812,0.6927 -0.875,1.40364 -0.54687,0.71094 -1.36718,1.27604 -0.82032,0.56511 -1.95052,0.92969 -1.13021,0.34635 -2.64323,0.34635 -1.40365,0 -2.47917,-0.29166 -1.05729,-0.3099 -1.85937,-0.80209 -0.80209,-0.49218 -1.36719,-1.11197 -0.54688,-0.63803 -0.91146,-1.29428 -0.875,-1.53125 -1.03906,-3.51822 v -3.28125 q 0.16406,-1.96875 1.03906,-3.5 0.36458,-0.65625 0.91146,-1.27605 0.5651,-0.63802 1.36719,-1.1302 0.80208,-0.51042 1.85937,-0.80209 1.07552,-0.30989 2.47917,-0.30989 1.51302,0 2.64323,0.36458 1.1302,0.34635 1.95052,0.91146 0.82031,0.5651 1.36718,1.27604 0.54688,0.71094 0.875,1.42187 0.34636,0.71094 0.51042,1.34896 0.16406,0.63802 0.23698,1.07552 h -2.88021 q -0.0911,-0.65625 -0.34635,-1.14843 -0.23698,-0.49219 -0.60156,-0.85677 -0.34636,-0.36459 -0.76563,-0.6198 -0.40104,-0.2552 -0.82031,-0.41927 -0.98438,-0.38281 -2.16927,-0.4375 -1.33073,0.0547 -2.36979,0.51042 -0.4375,0.20052 -0.875,0.49219 -0.41928,0.29166 -0.76563,0.72916 -0.32812,0.4375 -0.52865,1.02084 -0.20052,0.58333 -0.20052,1.34896 v 3.28125 q 0,0.80208 0.20052,1.42187 0.20053,0.61979 0.52865,1.07552 0.34635,0.4375 0.76563,0.7474 0.4375,0.30989 0.875,0.51041 1.03906,0.47396 2.36979,0.52865 1.18489,-0.0547 2.1875,-0.45573 0.41927,-0.16406 0.82031,-0.41927 0.41927,-0.27344 0.76562,-0.65625 0.34636,-0.38281 0.58334,-0.89323 0.25521,-0.52865 0.34635,-1.22135 z"
           style="text-align:end;text-anchor:end;fill:#bdc3cf;fill-opacity:0.94117647"
           id="path4580" />
        <path
           d="m 441.2877,297.99545 9.71614,8.96875 h -4.11979 l -6.48958,-5.74218 v 5.74218 h -2.95313 v -23.33333 h 2.95313 v 11.13802 l 6.48958,-4.9401 h 4.11979 z"
           style="text-align:end;text-anchor:end;fill:#bdc3cf;fill-opacity:0.94117647"
           id="path4582" />
      </g>
      <circle
         style="opacity:1;fill:#ffffff;fill-opacity:1;fill-rule:nonzero;stroke:none;stroke-width:19.89600182;stroke-linecap:round;stroke-linejoin:miter;stroke-miterlimit:4;stroke-dasharray:none;stroke-opacity:1;paint-order:markers stroke fill"
         id="path4573"
         cx="224.70035"
         cy="146.36427"
         r="4.1517859" />
    </g>
  </g>
</svg>
