<svg id="Capa_1" enable-background="new 0 0 512 512" height="512" viewBox="0 0 512 512" width="512" xmlns="http://www.w3.org/2000/svg"><g><path d="m238.938 67.878h34.124v168.042h-34.124z" fill="#ddebfd"/><path d="m210.406 225.113v277.239c0 5.011 4.062 9.074 9.074 9.074h73.041c5.011 0 9.074-4.063 9.074-9.074v-277.239c0-5.011-4.062-9.074-9.074-9.074h-73.041c-5.012 0-9.074 4.063-9.074 9.074z" fill="#df646e"/><path d="m292.52 216.039h-26.536c5.011 0 9.074 4.063 9.074 9.074v277.239c0 5.012-4.063 9.074-9.074 9.074h26.536c5.011 0 9.074-4.062 9.074-9.074v-277.239c0-5.011-4.062-9.074-9.074-9.074z" fill="#cd5668"/><path d="m132.39 412.311v-145.495c0-3.362 2.725-6.087 6.087-6.087h232.465c3.362 0 6.087 2.725 6.087 6.087v145.495c0 3.362-2.725 6.087-6.087 6.087h-232.465c-3.362 0-6.087-2.726-6.087-6.087z" fill="#70c6db"/><path d="m344.915 290.513h-180.411c-2.028 0-3.671 1.644-3.671 3.671v90.759c0 2.028 1.644 3.671 3.671 3.671h180.411c2.028 0 3.671-1.644 3.671-3.671v-90.759c.001-2.028-1.643-3.671-3.671-3.671z" fill="#ddebfd"/><ellipse cx="447.52" cy="65.055" fill="#5d91b9" rx="64.48" ry="64.48" transform="matrix(.988 -.153 .153 .988 -4.685 69.205)"/><path d="m489.811 16.404c4.772 9 7.485 19.259 7.485 30.155 0 35.611-28.869 64.48-64.48 64.48-16.187 0-30.968-5.978-42.291-15.829 10.823 20.413 32.28 34.325 56.995 34.325 35.611 0 64.48-28.868 64.48-64.48 0-19.425-8.601-36.83-22.189-48.651z" fill="#407194"/><path d="m50.854 65.055c0 9.873 8.003 17.876 17.876 17.876h374.54c9.873 0 17.876-8.003 17.876-17.876s-8.003-17.876-17.876-17.876h-374.54c-9.873 0-17.876 8.003-17.876 17.876z" fill="#ddebfd"/><ellipse cx="64.48" cy="65.055" fill="#5d91b9" rx="64.48" ry="64.48" transform="matrix(.998 -.071 .071 .998 -4.449 4.735)"/><circle cx="64.48" cy="65.055" fill="#407194" r="18.496"/><path d="m274.886 129.535c-35.611 0-64.48-28.869-64.48-64.48s28.869-64.48 64.48-64.48 35.611 128.96 0 128.96z" fill="#5d91b9"/><path d="m315.426 311.547h-118.852c-5.923 0-10.741 4.819-10.741 10.741v29.325c0 4.268 3.459 7.726 7.726 7.726s7.726-3.459 7.726-7.726v-24.613h15.769v5.948c0 4.268 3.459 7.726 7.726 7.726s7.726-3.459 7.726-7.726v-5.948h15.767v24.614c0 4.268 3.459 7.726 7.726 7.726s7.726-3.459 7.726-7.726v-24.614h15.769v5.948c0 4.268 3.459 7.726 7.726 7.726s7.726-3.459 7.726-7.726v-5.948h15.767v24.614c0 4.268 3.459 7.726 7.726 7.726s7.726-3.459 7.726-7.726v-29.325c.003-5.923-4.816-10.742-10.739-10.742z" fill="#5d91b9"/><path d="m106.771 16.404c4.772 9 7.485 19.259 7.485 30.155 0 35.611-28.869 64.48-64.48 64.48-16.187 0-30.968-5.978-42.291-15.829 10.823 20.413 32.28 34.325 56.995 34.325 35.611 0 64.48-28.868 64.48-64.48 0-19.425-8.601-36.83-22.189-48.651z" fill="#407194"/></g></svg>