<svg id="Capa_1" enable-background="new 0 0 512 512" height="512" viewBox="0 0 512 512" width="512" xmlns="http://www.w3.org/2000/svg"><g><g><g><g><path d="m482.856 229.936c12.391-15.534 19.801-35.216 19.801-56.63 0-50.198-40.694-90.892-90.892-90.892-5.966 0-11.796.581-17.441 1.679-25.94-49.959-78.143-84.093-138.324-84.093s-112.384 34.134-138.324 84.093c-5.645-1.097-11.475-1.679-17.441-1.679-50.198 0-90.892 40.694-90.892 90.892 0 21.415 7.41 41.096 19.801 56.63-18.325 25.172-29.144 56.158-29.144 89.676 0 84.244 68.293 152.538 152.537 152.538 5.374 0 10.683-.282 15.914-.824 21.017 24.873 52.435 40.674 87.549 40.674s66.532-15.801 87.549-40.674c5.231.542 10.539.824 15.914.824 84.244 0 152.537-68.294 152.537-152.538 0-33.518-10.819-64.504-29.144-89.676z" fill="#495560"/></g></g></g><g><g><g><path d="m206.925 319.612c0-.165 0-.33.001-.494.029-8.987-5.264-17.063-13.493-20.676-54.872-24.095-93.198-78.906-93.198-142.677 0-25.848 6.303-50.222 17.445-71.679-.001.002-.003.005-.004.007-5.691-1.106-11.569-1.688-17.586-1.678-50.795.08-91.24 41.007-90.743 91.799.206 21.063 7.581 40.408 19.796 55.722-18.324 25.172-29.143 56.158-29.143 89.676 0 84.244 68.293 152.538 152.537 152.538 5.374 0 10.683-.282 15.914-.824 21.017 24.873 52.435 40.674 87.549 40.674s66.531-15.801 87.549-40.674c-76.765-7.959-136.624-72.844-136.624-151.714z" fill="#3d4751"/></g></g></g><g><g><g><circle cx="387.972" cy="72.113" fill="#5f7080" r="72.113"/></g></g></g><g><g><g><circle cx="74.302" cy="30.905" fill="#5f7080" r="30.905"/></g></g></g><g><g><g><path d="m233.38 334.732c-22.108 0-41.619 11.082-53.31 27.985-16.169-17.216-39.122-27.985-64.604-27.985-48.951 0-88.634 39.683-88.634 88.634s39.683 88.634 88.634 88.634c38.121 0 70.615-24.07 83.129-57.838 10.051 6.412 21.979 10.143 34.785 10.143 35.781 0 64.786-29.006 64.786-64.786 0-35.781-29.006-64.787-64.786-64.787z" fill="#5f7080"/></g></g></g><g><g><g><g><g><path d="m169.309 287.453c-26.857 0-48.708-21.85-48.708-48.707s21.851-48.707 48.708-48.707c9.758 0 19.177 2.878 27.237 8.322 3.433 2.318 4.335 6.98 2.017 10.413-2.319 3.432-6.98 4.334-10.413 2.017-5.571-3.763-12.086-5.752-18.841-5.752-18.587 0-33.708 15.121-33.708 33.707s15.121 33.707 33.708 33.707c7.016 0 12.946-2.113 17.627-6.282.91-.811 1.78-1.709 2.586-2.67 2.661-3.173 7.392-3.589 10.566-.928 3.174 2.662 3.589 7.393.928 10.566-1.272 1.517-2.653 2.941-4.104 4.233-7.404 6.595-16.95 10.081-27.603 10.081z" fill="#fff"/></g></g></g></g><g><g><g><g><path d="m358.159 287.468c-15.69 0-16.842-.385-17.824-.712-2.505-.835-4.377-2.728-5.135-5.191-1.311-4.262.557-6.707 5.547-13.241 4.111-5.384 11.766-15.406 24.588-33.727 3.833-5.476 6.304-10.385 7.35-14.6l.281-2.199c-.225-7.073-6.049-12.759-13.177-12.759-6.287 0-11.728 4.466-12.936 10.62-.798 4.063-4.734 6.717-8.805 5.914-4.064-.798-6.712-4.74-5.914-8.805 2.586-13.17 14.216-22.729 27.654-22.729 15.54 0 28.184 12.644 28.184 28.184 0 .317-.021.635-.061.95l-.399 3.127c-.032.25-.076.499-.134.744-1.431 6.169-4.713 12.95-9.755 20.154-9.788 13.984-16.615 23.213-21.175 29.255 7.709-.021 17.854-.066 27.355-.186.032-.001.064-.001.097-.001 4.098 0 7.445 3.296 7.497 7.405.053 4.143-3.263 7.542-7.404 7.594-11.387.144-19.717.203-25.834.203z" fill="#fff"/></g></g></g></g><g><g><g><path d="m267.381 287.453c-26.857 0-48.707-21.85-48.707-48.707s21.85-48.707 48.707-48.707 48.708 21.85 48.708 48.707-21.851 48.707-48.708 48.707zm0-82.414c-18.586 0-33.707 15.121-33.707 33.707s15.121 33.707 33.707 33.707c18.587 0 33.708-15.121 33.708-33.707s-15.121-33.707-33.708-33.707z" fill="#fff"/></g></g></g></g></g></svg>