<svg id="Layer_18" height="512" viewBox="0 0 32 32" width="512" xmlns="http://www.w3.org/2000/svg" data-name="Layer 18"><path d="m29 10.5a3.5 3.5 0 0 1 -7 0c0-1.933 3.5-6.5 3.5-6.5s3.5 4.567 3.5 6.5z" fill="#66c8ff"/><path d="m29 10.54a3.5 3.5 0 0 1 -3.02 3.46 3.469 3.469 0 0 0 1.02-2.46c0-1.4-1.83-4.18-2.84-5.61.72-1.08 1.34-1.89 1.34-1.89s3.5 4.57 3.5 6.5z" fill="#fff"/><path d="m21 20c0-4.971-9-17-9-17s-9 12.029-9 17a9 9 0 0 0 18 0z" fill="#66c8ff"/><path d="m21 20a8.98 8.98 0 0 1 -6.01 8.48 8.954 8.954 0 0 0 4.01-7.48c0-4.16-6.31-13.27-8.36-16.12.82-1.16 1.36-1.88 1.36-1.88s9 12.03 9 17z" fill="#fff"/><path d="m29 23.88c-2.2 0-2.2-1.76-4.4-1.76s-2.2 1.76-4.4 1.76-2.2-1.76-4.4-1.76-2.2 1.76-4.4 1.76v-4.12c2.2 0 2.2-1.76 4.4-1.76s2.2 1.76 4.4 1.76 2.195-1.76 4.4-1.76 2.2 1.76 4.4 1.76z" fill="#e6e7e8"/><path d="m29 18.76a2.183 2.183 0 0 1 -1.578-.661 4.183 4.183 0 0 0 -5.651 0l-.041.032c-1.466-5.707-8.613-15.308-8.93-15.731a1.036 1.036 0 0 0 -1.6 0c-.942 1.26-9.2 12.445-9.2 17.6a10 10 0 0 0 15.557 8.315 1 1 0 0 0 -1.113-1.662 8 8 0 0 1 -12.444-6.653c0-3.437 5.192-11.39 8-15.3 1.939 2.716 6.8 9.818 7.813 14.025a2.4 2.4 0 0 1 -1.191-.624 4.178 4.178 0 0 0 -5.648 0 2.178 2.178 0 0 1 -1.573.66 1 1 0 0 0 0 2 4.079 4.079 0 0 0 2.823-1.1 2.206 2.206 0 0 1 3.148 0 4.182 4.182 0 0 0 5.65 0 2.213 2.213 0 0 1 3.155 0 4.089 4.089 0 0 0 2.823 1.099 1 1 0 0 0 0-2z"/><path d="m29 22.88a2.183 2.183 0 0 1 -1.578-.661 4.183 4.183 0 0 0 -5.651 0 2.209 2.209 0 0 1 -3.152 0 4.178 4.178 0 0 0 -5.648 0 2.178 2.178 0 0 1 -1.573.66 1 1 0 0 0 0 2 4.079 4.079 0 0 0 2.823-1.1 2.206 2.206 0 0 1 3.148 0 4.182 4.182 0 0 0 5.65 0 2.213 2.213 0 0 1 3.155 0 4.089 4.089 0 0 0 2.826 1.101 1 1 0 0 0 0-2z"/><path d="m25.5 15a4.5 4.5 0 0 0 4.5-4.5c0-2.163-3.087-6.3-3.706-7.108a1.037 1.037 0 0 0 -1.588 0c-.619.808-3.706 4.945-3.706 7.108a4.5 4.5 0 0 0 4.5 4.5zm0-9.3c1.216 1.734 2.5 3.9 2.5 4.8a2.5 2.5 0 0 1 -5 0c0-.9 1.284-3.066 2.5-4.8z"/></svg>