<svg id="Capa_1" enable-background="new 0 0 512 512" height="512" viewBox="0 0 512 512" width="512" xmlns="http://www.w3.org/2000/svg"><g><g><path d="m256 321c-141.387 0-244.009-153.662-223-190.819 43.944-77.72 127.344-130.181 223-130.181 95.991 0 179.641 52.829 223.461 131 20.724 36.968-82.074 190-223.461 190z" fill="#a8eb58"/><path d="m512 256c0 26.051-3.891 51.191-11.129 74.871-5.031 16.469-11.672 32.231-19.75 47.109-8.25 15.2-147.391 55.02-225.121 55.02s-216.871-39.82-225.109-55.02c-3.289-6.031-6.332-12.21-9.121-18.531-14-31.629-21.77-66.629-21.77-103.449 0-46.219 12.25-89.57 33.68-127 44.121 77.07 127.16 129 222.32 129s178.211-51.93 222.32-129c21.43 37.43 33.68 80.781 33.68 127z" fill="#80cf8c"/><path d="m481.262 377.699c-7.16 13.223-15.434 25.742-24.723 37.43-8.437 10.633-17.719 20.57-27.719 29.723-18.08 16.555-38.545 30.549-60.82 41.406-33.831 16.489-190.169 16.489-224 0-22.275-10.857-42.74-24.851-60.82-41.406-10-9.153-19.282-19.09-27.719-29.723-9.289-11.688-17.563-24.207-24.723-37.43z" fill="#599d8a"/></g><g><g id="Question_10_"><g><path d="m347.447 223.448-17.731-17.731 13.617-13.604c9.453-9.478 23.437-13.2 36.319-9.759 4.384 1.2 8.915-.025 12.123-3.233 4.897-4.897 4.909-12.836 0-17.719-4.898-4.898-12.833-4.886-17.731-.012l-17.731-17.731c14.645-14.67 38.548-14.67 53.193 0 14.683 14.658 14.726 38.467 0 53.193-9.453 9.465-23.437 13.237-36.319 9.735-4.335-1.114-8.963.086-12.123 3.245z" fill="#3e4151"/></g><g><path d="m299.447 228.641h25.075v25.075h-25.075z" fill="#3e4151" transform="matrix(.707 -.707 .707 .707 -79.161 291.247)"/></g><g><path d="m164.553 223.448-13.617-13.604c-9.453-9.478-13.176-23.388-9.747-36.319 1.151-4.335-.074-8.988-3.233-12.135-4.898-4.898-12.833-4.898-17.731 0-4.91 4.91-4.895 12.836 0 17.731l-17.731 17.731c-14.739-14.739-14.668-38.538 0-53.205 14.645-14.645 38.548-14.658 53.193.012 9.453 9.453 13.2 23.376 9.747 36.319-1.151 4.323.074 8.976 3.233 12.147l13.617 13.592z" fill="#5f657a"/></g><g><path d="m187.477 228.641h25.075v25.075h-25.075z" fill="#5f657a" transform="matrix(.707 -.707 .707 .707 -111.956 212.072)"/></g><g><path d="m256 384.938c-34.58 0-62.695-28.127-62.695-62.695s28.115-62.695 62.695-62.695 62.695 28.127 62.695 62.695c0 34.567-28.114 62.695-62.695 62.695z" fill="#fbf5eb"/></g><g><path d="m257.206 259.578c-.222-.008-.442-.031-.664-.031-19.052 0-34.542 28.127-34.542 62.695s15.49 62.695 34.542 62.695c.223 0 .443-.023.664-.031z" fill="#f6dbcb"/></g><path d="m256 384.938c-58.293 0-106.398 44.419-112.252 101.19 33.895 16.564 71.984 25.872 112.252 25.872s78.357-9.308 112.252-25.873c-5.854-56.77-53.959-101.189-112.252-101.189z" fill="#e6b78c"/><path d="m257.478 384.956c-.329-.006-.658-.019-.988-.019-41.627 0-75.489 50.622-75.489 112.852v3.037c23.72 7.258 48.901 11.174 74.999 11.174.494 0 .984-.016 1.478-.019z" fill="#e69471"/></g><g><path d="m293.617 121.617c0 13.292-7.272 25.831-18.809 32.601-3.762 2.258-6.27 6.27-6.27 10.784v19.311h-25.078v-19.311c0-10.532 4.765-20.814 12.539-27.836 5.07-5.07 12.539-6.551 12.539-15.548 0-7.023-5.516-12.539-12.539-12.539s-12.539 5.516-12.539 12.539h-25.078c.001-20.816 16.803-37.618 37.618-37.618s37.617 16.802 37.617 37.617z" fill="#5f657a"/></g><g><path d="m243.461 209.391h25.078v25.078h-25.078z" fill="#5f657a"/></g><path d="m256 209.391h12.539v25.078h-12.539z" fill="#3e4151"/><path d="m293.617 121.617c0 13.292-7.272 25.831-18.809 32.601-3.762 2.258-6.27 6.27-6.27 10.784v19.311h-12.538v-47.147c5.07-5.07 12.539-6.551 12.539-15.548 0-7.023-5.516-12.539-12.539-12.539v-25.079c20.815 0 37.617 16.802 37.617 37.617z" fill="#3e4151"/><path d="m368.252 486.127c-5.854-56.771-53.959-101.19-112.252-101.19v127.063c40.268 0 78.357-9.308 112.252-25.873z" fill="#de7141"/><path d="m318.695 322.242c0-34.568-28.115-62.695-62.695-62.695v125.391c34.581 0 62.695-28.128 62.695-62.696z" fill="#ecbea6"/></g><g fill="#fff"><path d="m139.219 368.531h-1.524c-6.754 0-12.226-5.477-12.226-12.227v-1.523h-8.715v1.523c0 6.75-5.477 12.227-12.227 12.227h-1.527v8.715h1.527c6.75 0 12.227 5.472 12.227 12.226v1.528h8.715v-1.528c0-6.754 5.472-12.226 12.226-12.226h1.524z"/><path d="m91.219 275.531h-1.524c-6.754 0-12.226-5.477-12.226-12.227v-1.523h-8.715v1.523c0 6.75-5.477 12.227-12.227 12.227h-1.527v8.715h1.527c6.75 0 12.227 5.472 12.227 12.226v1.528h8.715v-1.528c0-6.754 5.472-12.226 12.226-12.226h1.524z"/><path d="m372 377.246h1.524c6.754 0 12.226 5.472 12.226 12.226v1.528h8.715v-1.528c0-6.754 5.477-12.226 12.227-12.226h1.527v-8.715h-1.527c-6.75 0-12.227-5.477-12.227-12.227v-1.523h-8.715v1.523c0 6.75-5.472 12.227-12.226 12.227h-1.524z"/><path d="m420 284.246h1.524c6.754 0 12.226 5.472 12.226 12.226v1.528h8.715v-1.528c0-6.754 5.477-12.226 12.227-12.226h1.527v-8.715h-1.527c-6.75 0-12.227-5.477-12.227-12.227v-1.523h-8.715v1.523c0 6.75-5.472 12.227-12.226 12.227h-1.524z"/></g></g></svg>