<svg id="Layer_1" enable-background="new 0 0 512 512" height="512" viewBox="0 0 512 512" width="512" xmlns="http://www.w3.org/2000/svg"><g><path d="m476.004 204.65c0 8.88-1.16 17.69-3.45 26.19-.09.35-.22.7-.36 1.03l-29.807 68.7c-1.19 2.75-3.889 4.52-6.879 4.52h-335.05c-55.393 0-100.458-45.06-100.458-100.44 0-23.15 8.069-45.75 22.727-63.62 13.338-16.27 31.546-27.99 51.704-33.4 7.389-42.4 35.276-77.34 72.511-95.06 16.969-8.07 35.867-12.57 55.654-12.57 42.165 0 81.29 20.2 105.748 54.31 6.589-1.65 13.358-2.48 20.188-2.48 36.286 0 68.372 23.54 79.441 57.74 18.778 6.43 35.586 18.54 47.644 34.43 13.338 17.57 20.387 38.54 20.387 60.65z" fill="#eef0f5"/><g fill="#dae1ea"><path d="m476.004 204.65c0 8.88-1.16 17.69-3.45 26.19-.09.35-.22.7-.36 1.03l-29.807 68.7c-1.19 2.75-3.889 4.52-6.879 4.52h-20.738l27.427-63.22c.14-.33.27-.68.36-1.03 2.29-8.5 3.45-17.31 3.45-26.19 0-22.11-7.049-43.08-20.388-60.65-12.059-15.89-28.867-28-47.644-34.43-11.069-34.2-43.155-57.74-79.441-57.74-6.829 0-13.598.83-20.188 2.48-24.456-34.11-63.581-54.31-105.746-54.31-8.759 0-17.338.88-25.657 2.57 16.968-8.07 35.866-12.57 55.653-12.57 42.165 0 81.29 20.2 105.748 54.31 6.589-1.65 13.358-2.48 20.188-2.48 36.286 0 68.372 23.54 79.441 57.74 18.778 6.43 35.586 18.54 47.644 34.43 13.338 17.57 20.387 38.54 20.387 60.65z"/><path d="m100.459 260.101c-30.584 0-55.466-24.874-55.466-55.448 0-4.142-3.358-7.5-7.499-7.5s-7.499 3.358-7.499 7.5c0 38.845 31.61 70.448 70.464 70.448 4.142 0 7.499-3.358 7.499-7.5s-3.357-7.5-7.499-7.5z"/><path d="m512 266.21c0 32.52-23.337 59.7-54.144 65.68-4.14.81-8.409 1.23-12.779 1.23-19.508 0-37.806-8.44-50.434-22.93-17.438 14.84-39.325 22.93-62.493 22.93-15.888 0-31.486-3.91-45.425-11.34-11.959 7.43-25.627 11.34-39.825 11.34-41.715 0-75.651-33.93-75.651-75.64 0-41.7 33.936-75.63 75.651-75.63 1.8 0 3.64.07 5.489.21 5.949-8.72 13.138-16.26 21.268-22.45 16.508-12.62 36.886-19.65 58.493-19.65 40.655 0 76.781 25.57 90.629 63.14 7.129-2.53 14.598-3.81 22.297-3.81 36.897 0 66.924 30.02 66.924 66.92z"/></g><path d="m512 266.21c0 32.52-23.337 59.7-54.144 65.68 13.588-12.25 22.147-29.99 22.147-49.68 0-36.9-30.027-66.92-66.922-66.92-7.699 0-15.168 1.28-22.297 3.81-13.848-37.57-49.974-63.14-90.629-63.14-9.119 0-18.018 1.25-26.497 3.65 16.508-12.62 36.886-19.65 58.493-19.65 40.655 0 76.781 25.57 90.629 63.14 7.129-2.53 14.598-3.81 22.297-3.81 36.896 0 66.923 30.02 66.923 66.92z" fill="#b9cfdf"/><g><path d="m78.058 416.986c-2.883-2.697-7.363-2.697-10.247 0-27.05 25.31-38.333 52.747-30.181 73.396 5.344 13.536 18.542 21.618 35.305 21.618s29.96-8.082 35.304-21.618c8.152-20.649-3.131-48.086-30.181-73.396z" fill="#81ebeb"/><path d="m157.092 349.012c-2.882-2.697-7.363-2.697-10.246 0-17.015 15.919-23.997 33.466-18.679 46.937 3.651 9.247 12.548 14.767 23.802 14.767s20.151-5.521 23.802-14.767c5.318-13.471-1.665-31.018-18.679-46.937z" fill="#00cec8"/><path d="m434.19 416.986c-2.883-2.697-7.363-2.697-10.247 0-27.05 25.31-38.333 52.747-30.181 73.396 5.344 13.536 18.542 21.618 35.305 21.618s29.96-8.082 35.304-21.618c8.152-20.649-3.131-48.086-30.181-73.396z" fill="#81ebeb"/><path d="m256.124 403.364c-2.883-2.697-7.363-2.697-10.247 0-31.155 29.149-44.196 60.632-34.885 84.216 6.036 15.291 20.993 24.42 40.009 24.42s33.972-9.129 40.009-24.419c9.31-23.584-3.731-55.067-34.886-84.217z" fill="#81ebeb"/><path d="m357.155 359.008c-2.882-2.697-7.363-2.697-10.246 0-20.37 19.058-28.79 39.911-22.524 55.782 4.216 10.681 14.552 17.058 27.647 17.058s23.431-6.376 27.647-17.058c6.266-15.871-2.154-36.724-22.524-55.782z" fill="#00cec8"/></g></g></svg>