<svg height="512" viewBox="0 0 48 48" width="512" xmlns="http://www.w3.org/2000/svg"><g id="Temperature_Scale" data-name="Temperature Scale"><path d="m32 37a10 10 0 0 1 -12.5 9.68 10 10 0 0 1 -3.5-17.68v-22a6 6 0 0 1 12 0v22a10 10 0 0 1 4 8z" fill="#b2e5fb"/><path d="m19.5 46.68a10 10 0 0 1 -3.5-17.68v-22a6 6 0 0 1 3.5-5.45 6 6 0 0 1 3.5 5.45v22a10 10 0 0 1 -3.5 17.68z" fill="#9fdbf3"/><g fill="#425b72"><path d="m38 7h-4a1 1 0 0 1 0-2h4a1 1 0 0 1 0 2z"/><path d="m40 12h-6a1 1 0 0 1 0-2h6a1 1 0 0 1 0 2z"/><path d="m38 17h-4a1 1 0 0 1 0-2h4a1 1 0 0 1 0 2z"/><path d="m40 22h-6a1 1 0 0 1 0-2h6a1 1 0 0 1 0 2z"/><path d="m38 27h-4a1 1 0 0 1 0-2h4a1 1 0 0 1 0 2z"/></g><path d="m28 37a6 6 0 1 1 -8-5.65v-14.35h4v14.35a6 6 0 0 1 4 5.65z" fill="#f26674"/><path d="m21 42.91a6 6 0 0 1 -1-11.56v-14.35h2v14.35a6 6 0 0 1 -1 11.56z" fill="#db5669"/><path d="m24 7v10h-4v-10a2 2 0 0 1 4 0z" fill="#edebf2"/></g></svg>