<svg id="Capa_1" enable-background="new 0 0 512 512" height="512" viewBox="0 0 512 512" width="512" xmlns="http://www.w3.org/2000/svg"><g><g><path clip-rule="evenodd" d="m257.988 1.387 53.016 44.761c.707.597 1.643.847 2.553.682l68.324-12.343c1.49-.269 2.957.577 3.47 2.002l23.473 65.211c.314.872 1.001 1.558 1.874 1.87l65.352 23.384c1.429.511 2.278 1.982 2.007 3.475l-12.371 68.153c-.166.914.087 1.855.688 2.563l44.888 52.832c.984 1.158.984 2.858.001 4.017l-44.889 52.861c-.601.708-.854 1.648-.688 2.562l12.371 68.125c.271 1.493-.578 2.963-2.006 3.475l-66.731 23.906-24.857 69.028-72.343-13.069-54.131 45.73c-1.156.977-2.849.977-4.005-.001l-52.986-44.786c-.707-.597-1.643-.848-2.554-.684l-68.352 12.343c-1.491.269-2.958-.578-3.47-2.003l-23.445-65.181c-.314-.872-1.001-1.558-1.873-1.871l-65.382-23.413c-1.429-.512-2.278-1.982-2.006-3.475l12.371-68.125c.166-.914-.086-1.854-.687-2.562l-44.863-52.86c-.983-1.158-.983-2.857.001-4.015l44.861-52.833c.601-.708.853-1.648.688-2.562l-12.371-68.154c-.271-1.494.578-2.964 2.008-3.475l65.379-23.384c.873-.312 1.561-.999 1.875-1.871l23.444-65.209c.513-1.426 1.98-2.273 3.471-2.003l68.352 12.343c.91.164 1.847-.086 2.553-.683l52.987-44.76c1.155-.977 2.847-.977 4.003-.001z" fill="#ffe177" fill-rule="evenodd"/></g><g><path clip-rule="evenodd" d="m255.986 430.851c96.555 0 175.318-78.559 175.318-174.865s-78.763-174.865-175.318-174.865-175.318 78.559-175.318 174.865 78.763 174.865 175.318 174.865z" fill="#ffc344" fill-rule="evenodd"/></g><g><path d="m313.284 315.973c-4.245 0-8.063-2.677-9.512-6.679l-35.764-102.741c-1.409-4.045.729-8.466 4.775-9.874 4.051-1.41 8.467.73 9.874 4.775l30.517 87.669 29.108-87.394c1.353-4.065 5.742-6.26 9.809-4.908 4.064 1.354 6.261 5.746 4.907 9.81l-34.118 102.445c-.011.033-.023.067-.034.099-1.407 4.04-5.224 6.773-9.498 6.799-.022-.001-.043-.001-.064-.001z" fill="#024c67"/></g><g><path d="m198.749 317.303c-.073 0-.146 0-.22 0-8.53 0-16.412-2.259-23.396-6.713-13.438-8.567-19.971-19.543-19.971-33.553v-71.393c0-4.246 3.272-7.949 7.517-8.077 4.392-.132 7.994 3.389 7.994 7.752v71.718c0 8.631 3.828 14.755 12.799 20.474 4.516 2.881 9.452 4.281 15.09 4.281 5.057.003 9.654-1.023 13.752-3.105 10.556-5.291 15.455-12.182 15.455-21.708v-71.334c0-4.246 3.272-7.949 7.517-8.077 4.392-.132 7.994 3.389 7.994 7.752v71.659c0 10.739-4.16 25.625-23.979 35.556-6.216 3.158-13.143 4.768-20.552 4.768z" fill="#024c67"/></g><g><path clip-rule="evenodd" d="m363.797 393.895c41.096-32.014 67.507-81.863 67.507-137.909 0-52.743-23.391-100.019-60.413-132.091 16.093 38.417 25.121 81.57 25.121 127.18-.001 51.923-11.726 100.661-32.215 142.82z" fill="#feb237" fill-rule="evenodd"/></g><g><path clip-rule="evenodd" d="m478.056 381.543-12.371-68.125c-.166-.914.086-1.854.688-2.562l44.889-52.861c.984-1.158.983-2.859-.001-4.017l-44.888-52.832c-.602-.708-.854-1.648-.688-2.563l12.371-68.153c.271-1.493-.578-2.964-2.007-3.475l-65.352-23.384c-.873-.312-1.56-.998-1.874-1.87l-23.472-65.211c-.513-1.425-1.98-2.271-3.471-2.002l-59.385 10.731c19.669 22.775 36.084 49.352 48.395 78.676 37.022 32.073 60.413 79.348 60.413 132.091 0 56.047-26.411 105.895-67.507 137.909-13.015 26.781-29.576 50.901-48.922 71.484l69.588 12.572 24.857-69.028 66.731-23.906c1.428-.511 2.277-1.981 2.006-3.474z" fill="#ffd15b" fill-rule="evenodd"/></g><g><path clip-rule="evenodd" d="m493.182 454.181-89.667-147.762c-7.914-13.069-25.473-13.069-33.416 0l-89.667 147.762c-12.077 19.939-3.928 39.294 18.496 39.294h175.787c22.424.001 30.573-19.354 18.467-39.294z" fill="#eb5569" fill-rule="evenodd"/></g><g><path clip-rule="evenodd" d="m423.301 402.579c0 38.154-8.12 66.338-21.633 90.897h73.047c22.424 0 30.573-19.355 18.467-39.294l-89.667-147.762c-2.697-4.473-6.507-7.397-10.699-8.83 18.731 25.874 30.485 66.835 30.485 104.989z" fill="#e53950" fill-rule="evenodd"/></g><g><path d="m386.569 457.139c-4.245-.127-7.518-3.83-7.518-8.077 0-2.983 1.741-5.748 4.5-6.884 5.63-2.317 11.011 1.758 11.011 7.091v.117c0 4.363-3.6 7.884-7.993 7.753zm0-46.048c-4.245-.127-7.518-3.83-7.518-8.077v-34.581c0-4.247 3.273-7.95 7.518-8.077 4.392-.131 7.993 3.389 7.993 7.752v35.23c0 4.364-3.6 7.884-7.993 7.753z" fill="#f4eafa"/></g></g></svg>