<?xml version="1.0" encoding="iso-8859-1"?>
<!-- Generator: Adobe Illustrator 19.0.0, SVG Export Plug-In . SVG Version: 6.00 Build 0)  -->
<svg version="1.1" id="Capa_1" xmlns="http://www.w3.org/2000/svg" xmlns:xlink="http://www.w3.org/1999/xlink" x="0px" y="0px"
	 viewBox="0 0 512 512" style="enable-background:new 0 0 512 512;" xml:space="preserve">
<circle style="fill:#A0D860;" cx="256.13" cy="256.13" r="192.06"/>
<path style="fill:#61C979;" d="M256.129,64.068c-7.195,0-14.293,0.409-21.282,1.18c96.056,10.591,170.779,92.004,170.779,190.882
	s-74.724,180.29-170.779,190.881c6.989,0.771,14.088,1.18,21.282,1.18c106.073,0,192.061-85.989,192.061-192.061
	S362.202,64.068,256.129,64.068z"/>
<polygon style="fill:#21D8DE;" points="419.012,93.246 192.451,192.451 93.246,419.012 319.807,319.807 "/>
<polygon style="fill:#11B9C1;" points="419.012,93.246 319.807,319.807 93.246,419.012 "/>
<polygon style="fill:#21D8DE;" points="419.012,419.012 319.807,192.451 93.246,93.246 192.451,319.807 "/>
<polygon style="fill:#11B9C1;" points="419.012,419.012 319.807,192.451 93.246,93.246 "/>
<path style="fill:#FF4C4D;" d="M453.727,234.766L313.77,198.488L264.169,7.132c-2.376-9.166-13.704-9.166-16.08,0l-49.602,191.355
	L7.132,248.089c-9.166,2.376-9.166,13.704,0,16.08l191.355,49.602l49.602,191.355c2.376,9.166,13.704,9.166,16.08,0l49.602-191.355
	l191.355-49.602c9.166-2.376,9.166-13.704,0-16.08L453.727,234.766"/>
<g>
	<path style="fill:#F33A3A;" d="M256.129,512c3.426,0,6.852-2.291,8.04-6.874l49.602-191.355l191.355-49.602
		c4.583-1.188,6.874-4.614,6.874-8.04H256.129V512z"/>
	<path style="fill:#F33A3A;" d="M0,255.871c0-3.426,2.291-6.852,6.874-8.04l191.355-49.602L247.831,6.874
		C249.019,2.291,252.445,0,255.871,0v255.871H0z"/>
</g>
<circle style="fill:#FFB123;" cx="256.13" cy="256.13" r="81.32"/>
<circle style="fill:#FF4C4D;" cx="256.13" cy="256.13" r="30.525"/>
<g>
</g>
<g>
</g>
<g>
</g>
<g>
</g>
<g>
</g>
<g>
</g>
<g>
</g>
<g>
</g>
<g>
</g>
<g>
</g>
<g>
</g>
<g>
</g>
<g>
</g>
<g>
</g>
<g>
</g>
</svg>
